<?xml version="1.0" encoding="UTF-8"?>
<svg width="300px" height="80px" viewBox="0 0 300 80" version="1.1" xmlns="http://www.w3.org/2000/svg" xmlns:xlink="http://www.w3.org/1999/xlink">
    <title>Group</title>
    <g id="Page-1" stroke="none" stroke-width="1" fill="none" fill-rule="evenodd">
        <g id="Group" fill="#FFFFFF">
            <path d="M54.577055,-2.82924285e-14 C56.5872981,-2.82924285e-14 58.4797536,0.276193384 60.2557302,0.830534351 C62.0317067,1.38422392 63.5989373,2.19000509 64.9561132,3.24787786 C66.3126347,4.30509924 67.4093689,5.58900763 68.248279,7.09895165 C69.0852259,8.60954707 69.6048005,10.3390127 69.8056939,12.2860458 L63.5230297,12.2860458 C63.2547355,11.2451094 62.8863218,10.288855 62.4177886,9.41532824 C61.9472922,8.54245293 61.3452662,7.78813232 60.6084388,7.14910941 C59.8703027,6.51334351 59.0078351,6.0176285 58.0197273,5.66391858 C57.0303107,5.31216285 55.8838439,5.13563359 54.577055,5.13563359 C52.6675857,5.13563359 51.0152862,5.52126209 49.6253915,6.29317048 C48.2348425,7.06573028 47.1040807,8.09754707 46.2331062,9.39057506 C45.3614773,10.6836031 44.7175713,12.1512061 44.2987706,13.7972926 C43.8793156,15.4407735 43.6705697,17.11943 43.6705697,18.8313079 C43.6705697,20.5444885 43.8793156,22.223145 44.2987706,23.8659746 C44.7175713,25.5114097 45.3614773,26.9796641 46.2331062,28.2726921 C47.1040807,29.5644173 48.2348425,30.5981883 49.6253915,31.3700967 C51.0152862,32.1426565 52.6675857,32.5263308 54.577055,32.5263308 C55.9839634,32.5263308 57.2233516,32.2833588 58.2958739,31.7967634 C59.3677419,31.3114707 60.2897577,30.6385751 61.0606127,29.7832875 C61.8314676,28.9273486 62.4328392,27.9287532 62.8699624,26.7868499 C63.3051225,25.6462494 63.589776,24.4203155 63.7239231,23.1116539 L69.8554265,23.1116539 C69.7219338,25.2599695 69.2619075,27.2239389 68.4733843,29.0029109 C67.68617,30.7825344 66.6228089,32.3165802 65.2819924,33.6102595 C63.9418303,34.9032875 62.3660929,35.8999288 60.5580519,36.6060458 C58.7480478,37.3108601 56.754164,37.6639186 54.577055,37.6639186 C51.895422,37.6639186 49.4912444,37.1682036 47.3645223,36.1774249 C45.2358371,35.1879491 43.4356487,33.8362952 41.9606851,32.1244173 C40.4863759,30.4112366 39.3549597,28.416 38.5690541,26.1321934 C37.7818398,23.8509924 37.387251,21.4173639 37.387251,18.8313079 C37.387251,16.2817303 37.7818398,13.863084 38.5690541,11.5799288 C39.3549597,9.29807634 40.4863759,7.3008855 41.9606851,5.58900763 C43.4356487,3.87582697 45.2358371,2.51765903 47.3645223,1.50994402 C49.4912444,0.502229008 51.895422,-2.82924285e-14 54.577055,-2.82924285e-14 Z M97.3189342,30.3325476 C97.9949046,30.3325476 98.628995,30.5624916 99.1047263,30.9813415 C99.5673702,31.3910718 99.8232312,31.9330361 99.8212793,32.5056163 C99.8212793,33.0781964 99.5654071,33.6195094 99.0994913,34.0266341 L99.0994913,34.0266341 L96.1639605,36.6003135 C95.6882291,37.0165578 95.0567562,37.2458504 94.3834033,37.2458504 C93.7067785,37.2458504 93.0733425,37.0146036 92.5969567,36.5964051 C92.1336585,36.1866748 91.8777975,35.6453618 91.8791012,35.0714789 C91.8791012,34.4995501 92.1382391,33.9582372 92.6021917,33.5511125 L92.6021917,33.5511125 L95.5370682,30.9774331 C96.0121452,30.5605374 96.6442725,30.3325476 97.3189342,30.3325476 Z M129.981787,0.854701272 L139.88315,29.0029761 L139.98327,29.0029761 L149.632699,0.854701272 L158.378434,0.854701272 L158.378434,36.8060906 L152.397437,36.8060906 L152.397437,9.06298626 L152.296009,9.06298626 L142.346222,36.8060906 L137.16749,36.8060906 L127.217048,9.06298626 L127.117583,9.06298626 L127.117583,36.8060906 L121.135277,36.8060906 L121.135277,0.854701272 L129.981787,0.854701272 Z M181.749867,0.855613232 C184.294735,0.855613232 186.374342,1.22495674 187.982144,1.96364377 C189.589292,2.70167939 190.829334,3.62406107 191.700309,4.7333944 C192.571283,5.84012214 193.165457,7.04977099 193.485447,8.35843257 C193.802819,9.66709415 193.963141,10.8747888 193.963141,11.9841221 C193.963141,13.0901985 193.802819,14.2907277 193.485447,15.5837557 C193.165457,16.8767837 192.571283,18.0753588 191.700309,19.1846921 C190.829334,20.2907684 189.589292,21.2059847 187.982144,21.927084 C186.374342,22.6501374 184.294735,23.0103613 181.749867,23.0103613 L172.201212,23.0103613 L172.201212,36.8063511 L165.917239,36.8063511 L165.917239,0.855613232 L181.749867,0.855613232 Z M235.630535,0.854701272 L252.014802,27.3399532 L252.114267,27.3399532 L252.114267,0.854701272 L258.095918,0.854701272 L258.095918,36.8060906 L251.462509,36.8060906 L235.126665,10.3722992 L234.976159,10.3722992 L234.976159,36.8060906 L228.994508,36.8060906 L228.994508,0.854701272 L235.630535,0.854701272 Z M22.0585579,0.854570992 L35.8789797,36.8059603 L29.1454503,36.8059603 L25.7773769,27.2896651 L11.4530856,27.2896651 L8.08501217,36.8059603 L1.60145446,36.8059603 L15.372798,0.854570992 L22.0585579,0.854570992 Z M212.007168,0.854570992 L225.826935,36.8059603 L219.09406,36.8059603 L215.725987,27.2896651 L201.400387,27.2896651 L198.032967,36.8059603 L191.548755,36.8059603 L205.321408,0.854570992 L212.007168,0.854570992 Z M281.818947,0.854570992 L295.638715,36.8059603 L288.90584,36.8059603 L285.537766,27.2896651 L271.212821,27.2896651 L267.844093,36.8059603 L261.361189,36.8059603 L275.133187,0.854570992 L281.818947,0.854570992 Z M93.0732116,25.9679756 C93.7485277,25.9679756 94.3832724,26.198571 94.857695,26.6174209 C95.3216476,27.0264997 95.5775087,27.5671613 95.5755567,28.1403929 C95.5755567,28.712973 95.3190301,29.2549374 94.8504969,29.6614107 L94.8504969,29.6614107 L91.9156204,32.2363929 C91.4425065,32.6532885 90.8097249,32.880627 90.1376807,32.880627 C89.4610559,32.880627 88.8276199,32.6513344 88.3518885,32.2318331 C87.8879359,31.8227542 87.6320749,31.2814412 87.6333787,30.7062555 C87.634038,30.1349781 87.8918622,29.5943165 88.3571235,29.1865405 L88.3571235,29.1865405 L91.2906913,26.6122097 C91.7651139,26.1966168 92.3992043,25.9679756 93.0732116,25.9679756 Z M85.8286146,1.3104855 C87.3906101,1.3104855 88.8420162,1.61078066 89.9158472,2.15209364 C90.8306649,2.61589008 92.252624,3.47052621 93.9448405,4.57204275 C93.5391273,4.93487226 93.1267477,5.30591552 92.7143004,5.67876667 L91.9732474,6.35046758 L91.9732474,6.35046758 L91.4833539,6.79633791 C89.0474494,9.01670433 86.8466601,11.071544 86.3063091,11.5771929 C86.1047612,11.7660987 86.0118398,12.0240529 86.0524112,12.2865669 C86.090365,12.5425669 86.2533046,12.7672997 86.5000044,12.8995338 C87.8257702,13.6167247 89.2012686,13.9782514 90.5924721,13.9782514 C94.9113539,13.9782514 98.2506347,10.4548316 99.6555801,8.68628193 C99.9830953,9.00851394 100.547464,9.56952217 101.26747,10.2874672 L101.675148,10.6941457 C101.745504,10.7643554 101.817024,10.8357392 101.889648,10.9082356 L102.571398,11.5890809 C102.650091,11.6676991 102.729705,11.7472453 102.810178,11.8276582 L104.338294,13.3553995 C104.515465,13.5325962 104.694609,13.7117835 104.875236,13.8924697 L105.421081,14.4385324 C105.970402,14.9881077 106.528684,15.5467447 107.082748,16.1011623 L107.082748,16.1011623 L107.690009,16.7102209 L107.690009,16.7102209 L108.331418,17.3510019 C108.469217,17.488677 108.603741,17.6230855 108.734753,17.7539884 L110.123236,19.1412516 C110.271949,19.2898007 110.410637,19.4283106 110.538502,19.5559744 L111.169447,20.185351 C111.250835,20.2664036 111.319806,20.3349965 111.375565,20.3903231 L111.469228,20.4830486 L111.469228,20.4830486 L111.502404,20.5156967 C111.79491,20.8016611 111.982716,21.2791369 111.979486,21.7286025 C111.976826,22.0178239 111.893721,22.4366738 111.508293,22.7995033 C111.044995,23.2372438 110.536545,23.4496 109.956113,23.4496 C109.630234,23.4496 109.265092,23.3883684 108.814881,23.2548316 L108.814881,23.2548316 L100.234703,14.6843684 C99.97557,14.4251115 99.4697373,14.3984041 99.1798487,14.6231369 C99.0214897,14.7462514 98.9226789,14.9286433 98.9082827,15.1208061 C98.8978126,15.3116662 98.9704484,15.500572 99.1098305,15.6412743 L99.1098305,15.6412743 L108.054496,24.5752183 C108.329334,25.5471064 107.808451,26.2512692 107.568295,26.5137832 C107.220167,26.8896407 106.421828,27.1716967 105.708558,27.1716967 C105.426522,27.1716967 105.185712,27.1274015 105.006413,27.0414168 L105.006413,27.0414168 L95.8628166,18.3647756 C95.5964856,18.1133354 95.092616,18.096399 94.8059993,18.3276458 C94.6496034,18.4559715 94.5586452,18.6338036 94.5488295,18.8298748 C94.540977,19.0233405 94.6181934,19.2057323 94.765428,19.3483888 L94.765428,19.3483888 L104.17012,28.2719104 C104.255844,28.5090198 104.289217,28.7904244 104.25977,29.0692234 C104.221816,29.4574575 104.031393,30.1857221 103.196409,30.6983735 C102.618595,31.0540377 101.657316,31.1484906 100.591992,30.9582819 C100.419237,30.6651522 100.196749,30.400684 99.9330355,30.1655288 C99.0489735,29.3884092 97.7762121,29.0516356 96.5472939,29.2815796 C96.6991092,28.9187501 96.7782887,28.5292132 96.7782887,28.1429333 C96.7809062,27.25703 96.3935156,26.4271471 95.6854807,25.8011522 C94.9866071,25.1855796 94.0580475,24.8448977 93.0719028,24.8448977 C92.7434061,24.8448977 92.4234162,24.8820275 92.1112788,24.956287 C92.2231771,24.6390555 92.2807622,24.3061903 92.2807622,23.9720224 C92.2827253,23.0854677 91.8920629,22.2536305 91.1879542,21.6308926 C90.4871175,21.0140173 89.5598667,20.6746382 88.5724133,20.6746382 C88.2216677,20.6746382 87.879429,20.7176305 87.5502779,20.8010097 C87.6543237,20.4948519 87.7066738,20.1711064 87.7079825,19.8480122 C87.7099456,18.9614575 87.3199375,18.1302718 86.6138658,17.5068824 C85.9136834,16.8919613 84.9864326,16.5512794 83.9996335,16.5512794 C83.0187239,16.5512794 82.0921274,16.8900071 81.3958713,17.5010198 L81.3958713,17.5010198 L78.6376764,19.9196662 C77.3014405,18.2761852 74.5975587,14.7175898 74.3201033,12.5275847 C73.8777451,9.01914707 75.1505065,6.39009873 78.5781281,3.7389028 C80.5994957,2.17228702 83.1751198,1.3104855 85.8286146,1.3104855 Z M88.5736566,21.7966087 C89.2509358,21.7966087 89.8843718,22.0265527 90.3601031,22.4447511 C90.8240557,22.8544814 91.0799168,23.3970972 91.0773191,23.9696774 C91.0773191,24.5435603 90.8201295,25.0829191 90.3542137,25.491998 L90.3542137,25.491998 L87.4186829,28.065026 C86.9442602,28.4806188 86.3114786,28.7086087 85.6374713,28.7086087 C84.9621553,28.7086087 84.3274105,28.4799674 83.8542966,28.0611176 C83.3890353,27.6500845 83.134483,27.1107257 83.134483,26.5368427 C83.134483,25.9642626 83.3923072,25.423601 83.8588773,25.0158249 L83.8588773,25.0158249 L86.7930994,22.4414941 C87.2681764,22.0259013 87.9016124,21.7966087 88.5736566,21.7966087 Z M83.9990446,17.6724682 C84.6763238,17.6724682 85.3123773,17.903715 85.7867999,18.3238677 C86.2507525,18.7309924 86.5053048,19.2723053 86.5053048,19.8448855 C86.5039961,20.4174656 86.2468263,20.9587786 85.7809105,21.3672061 L85.7809105,21.3672061 L82.8447253,23.9421883 C82.370957,24.3571298 81.7394842,24.5851196 81.0661312,24.5851196 C80.3881977,24.5851196 79.7554161,24.355827 79.2796847,23.9382799 C78.8157321,23.5272468 78.5611798,22.9865852 78.5618329,22.4127023 C78.5618329,21.8388193 78.8196583,21.2988092 79.2855741,20.8910331 L79.2855741,20.8910331 L82.2197962,18.3180051 C82.6942188,17.9017608 83.3263461,17.6724682 83.9990446,17.6724682 Z M18.7408715,7.04938015 L18.590365,7.04938015 L13.1616614,22.5064387 L24.1185337,22.5064387 L18.7408715,7.04938015 Z M208.688827,7.04938015 L208.538975,7.04938015 L203.110271,22.5064387 L214.066489,22.5064387 L208.688827,7.04938015 Z M278.499952,7.04938015 L278.350754,7.04938015 L272.922051,22.5064387 L283.878923,22.5064387 L278.499952,7.04938015 Z M104.672681,0.862648346 C108.137602,0.862648346 111.251778,2.08532519 113.438048,4.30594606 C115.405102,6.30574249 116.308141,9.15040407 115.980299,12.3142514 C115.666198,15.3458646 114.199087,18.247198 112.300742,19.6281649 C109.792443,17.1354408 107.749971,15.098411 106.098681,13.4465974 L105.236323,12.5833878 C101.663664,9.00468906 100.200628,7.506517 99.861517,7.15820049 L99.8273205,7.12306008 C99.817547,7.11301228 99.8093799,7.1046125 99.8027633,7.09780778 L99.7812203,7.07569669 L99.5495712,6.83402748 L99.2374338,7.28153893 C98.3042936,8.58954911 94.9277133,12.8575186 90.5911633,12.8575186 C89.534346,12.8575186 88.4775287,12.6041242 87.4455777,12.103198 C88.1946046,11.4041067 90.3282451,9.41671051 92.6198976,7.33125884 L93.1723,6.82947718 C94.5577504,5.57336341 95.964759,4.31622886 97.1283799,3.31516743 C98.9135177,1.77981883 101.733224,0.862648346 104.672681,0.862648346 Z M181.498587,5.99124682 L172.201212,5.99124682 L172.201212,17.8753791 L181.397813,17.8753791 C182.101921,17.8753791 182.821081,17.7737608 183.559217,17.571827 C184.294735,17.3698931 184.973978,17.0428906 185.594326,16.5914707 C186.213366,16.1380967 186.71789,15.5322952 187.102663,14.7779746 C187.487436,14.0210483 187.679168,13.0739135 187.679168,11.9339644 C187.679168,10.7581883 187.512302,9.78564885 187.177916,9.01243766 C186.842221,8.24118066 186.392011,7.62886514 185.820086,7.17549109 C185.24947,6.72146565 184.596403,6.41205089 183.860884,6.24464122 C183.122093,6.07527735 182.334879,5.99124682 181.498587,5.99124682 Z M248.907432,0.818288041 L248.907432,5.58978931 L242.425183,5.58978931 L239.446463,0.818288041 L248.907432,0.818288041 Z" id="Combined-Shape"></path>
            <polygon id="Fill-28" points="0 46.9720916 300 46.9720916 300 45.9676336 0 45.9676336"></polygon>
            <path d="M123.546653,71.1103511 L124.533452,74.6722036 L128.240492,74.5067481 L125.14333,76.5417201 L126.447502,80 L123.546653,77.696 L120.645149,80 L121.949975,76.5417201 L118.852813,74.5067481 L122.559854,74.6722036 L123.546653,71.1103511 Z M136.77349,71.1103511 L137.760289,74.6722036 L141.467329,74.5067481 L138.370167,76.5417201 L139.674993,80 L136.77349,77.696 L133.871987,80 L135.176812,76.5417201 L132.079651,74.5067481 L135.786691,74.6722036 L136.77349,71.1103511 Z M150.000327,71.1103511 L150.987781,74.6722036 L154.694821,74.5067481 L151.597005,76.5417201 L152.902485,80 L150.000327,77.696 L147.098824,80 L148.404304,76.5417201 L145.306488,74.5067481 L149.013528,74.6722036 L150.000327,71.1103511 Z M163.227819,71.1103511 L164.214618,74.6722036 L167.921658,74.5067481 L164.825151,76.5417201 L166.129322,80 L163.227819,77.696 L160.325661,80 L161.631141,76.5417201 L158.533325,74.5067481 L162.240365,74.6722036 L163.227819,71.1103511 Z M176.454656,71.1103511 L177.44211,74.6722036 L181.14915,74.5067481 L178.051334,76.5417201 L179.356814,80 L176.454656,77.696 L173.553153,80 L174.857324,76.5417201 L171.760817,74.5067481 L175.467857,74.6722036 L176.454656,71.1103511 Z" id="Combined-Shape"></path>
            <polygon id="Fill-35" points="186.062663 75.378972 300 75.378972 300 74.374514 186.062663 74.374514"></polygon>
            <polygon id="Fill-36" points="0.000654376031 75.378972 114.438589 75.378972 114.438589 74.374514 0.000654376031 74.374514"></polygon>
            <path d="M270.335433,52.1472651 C272.774947,52.1472651 274.569246,52.6234382 275.311308,52.7419929 C275.359078,53.6233364 275.478829,55.0759573 275.669907,56.5761303 L275.669907,56.5761303 L274.952056,56.7194382 C274.378168,54.6948885 273.68453,53.8376468 272.176847,53.337372 C271.626517,53.1471634 270.645607,53.0279573 269.952623,53.0279573 C266.292044,53.0279573 263.923857,55.5286799 263.923857,59.8865425 C263.923857,63.6731277 265.885022,67.4362626 270.526511,67.4362626 C271.3399,67.4362626 272.081963,67.2695043 272.559657,67.0310921 C273.062872,66.7451277 273.373047,66.4832651 273.373047,65.5068173 L273.373047,65.5068173 L273.372428,63.395419 C273.359048,61.8034712 273.110192,61.6199165 270.885109,61.4583695 L270.885109,61.4583695 L270.885109,60.767886 L277.033626,60.767886 L277.033626,61.4583695 C275.550156,61.6492295 275.454617,61.791886 275.454617,63.1969547 L275.454617,65.1974025 C275.454617,66.0311939 275.478829,66.8167817 275.59858,67.459713 C274.115109,67.7932295 272.176847,68.3169547 270.167913,68.3169547 C264.736592,68.3169547 261.435265,64.9596417 261.435265,60.1725069 C261.435265,55.1476112 265.549981,52.1472651 270.335433,52.1472651 Z M289.377056,52.1468743 C293.468215,52.1468743 297.12814,55.2664265 297.12814,60.0060092 C297.12814,65.1260092 293.635735,68.3172153 289.233747,68.3172153 C284.640028,68.3172153 281.290931,64.8400448 281.290931,60.3629761 C281.290931,56.1002178 284.329854,52.1468743 289.377056,52.1468743 Z M39.3067322,52.1471349 C40.64624,52.1471349 41.9621902,52.5041018 42.4647509,52.5992061 C42.5602898,53.4570992 42.6564831,54.4094453 42.8475609,55.9571705 L42.8475609,55.9571705 L42.1061529,56.1004784 C41.699131,54.5286514 41.0290499,52.9802748 38.7806139,52.9802748 C36.9143335,52.9802748 36.2684643,54.3377913 36.2684643,55.5761018 C36.2684643,57.2195827 37.3213553,58.0527226 39.3067322,59.077374 C42.1774799,60.5534453 43.4214487,61.6490992 43.4214487,63.9114097 C43.4214487,66.4121323 41.2443396,68.3174758 38.1583023,68.3174758 C36.7232557,68.3174758 35.4792868,67.9123053 34.4983771,67.5312366 C34.306645,66.864855 34.0193739,65.2448244 33.8518536,63.9589618 L33.8518536,63.9589618 L34.593916,63.7687532 C35.0722649,65.3640305 36.125156,67.4361323 38.6130936,67.4361323 C40.3354113,67.4361323 41.3883024,66.245374 41.3883024,64.6969975 C41.3883024,62.8639593 40.4073927,62.1252723 38.302265,60.9820662 C35.7901154,59.6245496 34.3786263,58.4813435 34.3786263,56.2672366 C34.3786263,54.1475827 36.1487135,52.1471349 39.3067322,52.1471349 Z M122.584458,52.1470697 C124.641816,52.1470697 126.316365,52.5756906 127.105542,52.6948967 C127.201081,53.7664489 127.368601,55.1949679 127.560333,56.3857262 L127.560333,56.3857262 L126.818271,56.5524845 C126.339922,54.9572071 125.766034,53.9807593 124.545623,53.4804845 C123.923966,53.1945201 122.943056,53.0277618 122.033474,53.0277618 C118.086277,53.0277618 116.005362,55.933655 116.005362,59.8628967 C116.005362,64.4591715 118.39776,67.4126168 122.272975,67.4126168 C124.713143,67.4126168 125.909343,66.2928611 127.129754,63.9113445 L127.129754,63.9113445 L127.847605,64.1497567 C127.512564,65.2929628 126.890252,67.0074463 126.531654,67.7454819 C125.837361,67.8881384 123.971735,68.3174107 122.153879,68.3174107 C116.435941,68.3174107 113.516769,64.5308254 113.516769,60.3631715 C113.516769,55.5050341 117.225118,52.1470697 122.584458,52.1470697 Z M96.5077696,52.4803908 L106.651252,64.4589761 L106.651252,58.6243908 C106.651252,56.4096326 106.603483,55.3856326 106.531502,54.6710473 C106.460175,53.5994952 105.909844,53.26663 103.995795,53.1467725 L103.995795,53.1467725 L103.995795,52.4803908 L109.90481,52.4803908 L109.90481,53.1467725 C108.37357,53.3135308 107.871664,53.551943 107.799682,54.6475969 C107.776125,55.4097344 107.727701,56.4096326 107.727701,58.6243908 L107.727701,68.1745588 L106.818773,68.1745588 L96.5790966,55.7191491 L96.5790966,61.6729405 C96.5790966,63.8160448 96.651078,64.8875969 96.6988474,65.5787318 C96.7472713,66.7929405 97.3447166,67.1505588 99.0670343,67.2932153 L99.0670343,67.2932153 L99.0670343,67.9602483 L93.254212,67.9602483 L93.254212,67.2932153 C94.7370281,67.1740092 95.3115702,66.8170422 95.4071091,65.6497344 C95.4790905,64.8875969 95.52686,63.8160448 95.52686,61.6488387 L95.52686,55.5758412 C95.52686,54.9094595 95.4790905,54.5283908 95.0485111,54.0046656 C94.5937197,53.4092865 94.0911589,53.26663 92.9191715,53.1467725 L92.9191715,53.1467725 L92.9191715,52.4803908 L96.5077696,52.4803908 Z M203.803517,52.4801954 C205.550047,52.4801954 206.722034,52.6945059 207.631617,53.289885 C208.612527,53.9093659 209.258396,54.9809181 209.258396,56.4335389 C209.258396,58.4815389 207.942445,59.7674015 206.171704,60.5295389 C206.602283,61.268226 207.631617,62.8635033 208.348813,63.9350555 C209.234184,65.1974677 209.688975,65.7928468 210.239305,66.388226 C210.885174,67.0787094 211.435505,67.340572 211.985835,67.4838799 L211.985835,67.4838799 L211.890296,68.1502616 C211.578813,68.1502616 211.315754,68.1268112 211.004925,68.1027094 C209.258396,67.9841547 208.325255,67.5314321 207.273019,66.0547094 C206.386994,64.8398494 205.526489,63.3396763 204.760869,62.1254677 C204.28252,61.3633303 203.971037,61.2206738 202.75128,61.2206738 L202.75128,61.2206738 L201.913679,61.2206738 L201.913679,64.9597069 C201.913679,66.9836051 202.176738,67.1028112 204.090788,67.2936712 L204.090788,67.2936712 L204.090788,67.9600529 L197.703424,67.9600529 L197.703424,67.2936712 C199.688801,67.0787094 199.856321,66.9836051 199.856321,64.9597069 L199.856321,64.9597069 L199.856321,55.4570911 C199.856321,53.4331929 199.593262,53.3615389 197.703424,53.1472285 L197.703424,53.1472285 L197.703424,52.4801954 Z M7.20193172,52.4801954 C8.94846134,52.4801954 10.1204488,52.6945059 11.0293771,53.289885 C12.0102868,53.9093659 12.6568103,54.9809181 12.6568103,56.4335389 C12.6568103,58.4815389 11.3408601,59.7674015 9.57011857,60.5295389 C10.000698,61.268226 11.0293771,62.8635033 11.7472276,63.9350555 C12.6325984,65.1974677 13.0867354,65.7928468 13.6370656,66.388226 C14.2829347,67.0787094 14.833265,67.340572 15.3835952,67.4838799 L15.3835952,67.4838799 L15.2880563,68.1502616 C14.9765733,68.1502616 14.7141685,68.1268112 14.4026856,68.1027094 C12.6568103,67.9841547 11.7230157,67.5314321 10.6707791,66.0547094 C9.78540829,64.8398494 8.92424943,63.3396763 8.15862947,62.1254677 C7.6802806,61.3633303 7.36879761,61.2206738 6.14904068,61.2206738 L6.14904068,61.2206738 L5.31143937,61.2206738 L5.31143937,64.9597069 C5.31143937,66.9836051 5.57515291,67.1028112 7.4892028,67.2936712 L7.4892028,67.2936712 L7.4892028,67.9600529 L1.10118398,67.9600529 L1.10118398,67.2936712 L1.10118398,67.2936712 L1.45254206,67.2542703 C3.10684652,67.059287 3.25408113,66.8571115 3.25408113,64.9597069 L3.25321414,55.2672541 C3.23541677,53.4284216 2.93005945,53.3546257 1.10118398,53.1472285 L1.10118398,53.1472285 L1.10118398,52.4801954 Z M188.349315,52.4803908 C190.04742,52.4803908 191.41114,52.7898056 192.39205,53.5043908 C193.32519,54.1948743 193.971059,55.31463 193.971059,56.8858056 C193.971059,60.3629761 190.981215,61.7680448 188.707913,61.7680448 C188.444854,61.7680448 188.206006,61.7445944 188.062044,61.7204926 L188.062044,61.7204926 L186.411707,61.2918718 L186.411707,65.0068031 C186.411707,67.0072509 186.579227,67.0554545 188.779894,67.2932153 L188.779894,67.2932153 L188.779894,67.9602483 L182.17724,67.9602483 L182.17724,67.2932153 C184.234598,67.0789048 184.330137,66.9355969 184.330137,64.9592509 L184.329325,55.3121241 C184.312107,53.3820728 184.00802,53.3316682 182.17724,53.1467725 L182.17724,53.1467725 L182.17724,52.4803908 Z M138.301785,52.4801303 L138.301785,53.1471634 C136.315754,53.3614738 136.124676,53.4565781 136.124676,55.5045781 L136.124676,55.5045781 L136.124676,64.9596417 C136.124676,67.0076417 136.315754,67.0786443 138.301785,67.2936061 L138.301785,67.2936061 L138.301785,67.9599878 L131.890209,67.9599878 L131.890209,67.2936061 C133.852028,67.0786443 134.043106,66.9835399 134.043106,64.9596417 L134.042456,55.3124115 C134.028936,53.4503183 133.788744,53.3545606 131.890209,53.1471634 L131.890209,53.1471634 L131.890209,52.4801303 L138.301785,52.4801303 Z M53.6371092,52.4801303 L53.6371092,53.1471634 C51.651078,53.3614738 51.4600002,53.4565781 51.4600002,55.5045781 L51.4600002,55.5045781 L51.4600002,64.9596417 C51.4600002,67.0076417 51.651078,67.0786443 53.6371092,67.2936061 L53.6371092,67.2936061 L53.6371092,67.9599878 L47.2255329,67.9599878 L47.2255329,67.2936061 C49.1873522,67.0786443 49.37843,66.9835399 49.37843,64.9596417 L49.37843,64.9596417 L49.37843,55.5045781 C49.37843,53.4565781 49.1873522,53.3614738 47.2255329,53.1471634 L47.2255329,53.1471634 L47.2255329,52.4801303 L53.6371092,52.4801303 Z M251.507006,52.1472651 C253.014034,56.2191634 254.665025,60.7203338 256.172053,64.8397842 C256.937673,66.9125374 257.152963,67.1027461 258.851723,67.2936061 L258.851723,67.2936061 L258.851723,67.9599878 L252.942707,67.9599878 L252.942707,67.2936061 C254.497505,67.1027461 254.689237,66.8643338 254.354196,65.9595399 C254.042713,65.0306443 253.564364,63.839886 253.061804,62.339713 L253.061804,62.339713 L247.89485,62.339713 C247.512041,63.4112651 247.152788,64.3401608 246.817748,65.3166087 C246.291629,66.8643338 246.62667,67.0551939 248.587835,67.2936061 L248.587835,67.2936061 L248.587835,67.9599878 L243.061629,67.9599878 L243.061629,67.2936061 C244.569312,67.1027461 244.952121,66.9359878 245.789068,64.7928835 L245.789068,64.7928835 L250.741386,52.2899216 Z M149.473554,52.1472651 C150.981237,56.2191634 152.632228,60.7203338 154.138601,64.8397842 C154.904221,66.9125374 155.119511,67.1027461 156.818271,67.2936061 L156.818271,67.2936061 L156.818271,67.9599878 L150.909255,67.9599878 L150.909255,67.2936061 C152.464707,67.1027461 152.655785,66.8643338 152.320745,65.9595399 C152.009916,65.0306443 151.531567,63.839886 151.029006,62.339713 L151.029006,62.339713 L145.861399,62.339713 C145.478589,63.4112651 145.119991,64.3401608 144.78495,65.3166087 C144.258832,66.8643338 144.593218,67.0551939 146.555037,67.2936061 L146.555037,67.2936061 L146.555037,67.9599878 L141.028832,67.9599878 L141.028832,67.2936061 C142.53586,67.1027461 142.91867,66.9359878 143.756271,64.7928835 L143.756271,64.7928835 L148.707935,52.2899216 Z M236.578857,52.4803908 C238.276962,52.4803908 239.640682,52.7898056 240.621592,53.5043908 C241.554732,54.1948743 242.200601,55.31463 242.200601,56.8858056 C242.200601,60.3629761 239.210757,61.7680448 236.937455,61.7680448 C236.674396,61.7680448 236.435548,61.7445944 236.291586,61.7204926 L236.291586,61.7204926 L234.641249,61.2918718 L234.641763,65.1833435 C234.653269,67.0103464 234.875456,67.0626593 237.009436,67.2932153 L237.009436,67.2932153 L237.009436,67.9602483 L230.406782,67.9602483 L230.406782,67.2932153 C232.46414,67.0789048 232.559679,66.9355969 232.559679,64.9592509 L232.559679,55.5048387 C232.559679,53.3851847 232.29662,53.3376326 230.406782,53.1467725 L230.406782,53.1467725 L230.406782,52.4803908 Z M64.4505423,52.4803908 C67.8238507,52.4803908 69.9525359,53.1467725 71.4360064,54.5524926 C72.6079939,55.6956987 73.4698071,57.36263 73.4698071,59.6483908 C73.4698071,62.4350779 72.3213772,64.6973883 70.4793086,66.0783552 C68.6607976,67.4358718 66.3403802,67.9602483 63.3976512,67.9602483 L63.3976512,67.9602483 L57.7994643,67.9602483 L57.7994643,67.2932153 C59.8574769,67.1030066 59.9530158,66.9355969 59.9530158,64.9833527 L59.9530158,55.4807369 C59.9530158,53.4327369 59.6657447,53.3376326 57.7994643,53.1467725 L57.7994643,53.1467725 L57.7994643,52.4803908 Z M88.4217105,52.432969 C88.445268,53.0283481 88.5408069,54.8138341 88.6370002,56.0762463 L88.6370002,56.0762463 L87.9191497,56.1954524 C87.7038599,55.3857628 87.4643583,54.885488 87.2019535,54.3858646 C86.8191436,53.5996254 86.2681589,53.4328672 84.8331123,53.4328672 L84.8331123,53.4328672 L82.5604643,53.4328672 C81.8190563,53.4328672 81.7706325,53.5045211 81.7706325,54.1950046 L81.7706325,54.1950046 L81.7706325,59.4583125 L84.4260904,59.4583125 C86.2210439,59.4583125 86.3401403,59.1006941 86.6274114,57.481315 L86.6274114,57.481315 L87.3688194,57.481315 L87.3688194,62.3870046 L86.6274114,62.3870046 C86.3165828,60.6725211 86.1248506,60.4347603 84.4025329,60.4347603 L84.4025329,60.4347603 L81.7706325,60.4347603 L81.7706325,65.1736916 C81.7706325,66.8406229 82.2967508,66.9832794 83.4936046,67.0073812 L83.4936046,67.0073812 L85.7178287,67.0073812 C87.1777416,67.0073812 87.4165889,66.7930707 87.9433616,66.1735898 C88.3974985,65.6739664 88.9000593,64.6975186 89.2350999,63.9829333 L89.2350999,63.9829333 L89.9529504,64.173142 C89.8089876,64.7926229 89.1631185,67.2457934 88.9236169,67.9597272 L88.9236169,67.9597272 L77.2973179,67.9597272 L77.2973179,67.2933455 C79.5221964,67.1265873 79.6897167,66.9122768 79.6897167,64.9593812 L79.6897167,64.9593812 L79.6897167,55.5525211 C79.6897167,53.4328672 79.4260032,53.3136611 77.6323585,53.1469028 L77.6323585,53.1469028 L77.6323585,52.4805211 L85.488095,52.4800333 C87.3528872,52.4765087 88.1583786,52.4544651 88.4217105,52.432969 Z M165.933402,52.4805863 L165.933402,53.1469679 C164.019352,53.337828 163.756293,53.4329323 163.756293,55.4809323 L163.756293,65.1737567 C163.756293,66.6263776 163.948025,66.9598941 165.31109,66.9833445 C165.335302,66.9833445 167.05762,67.0074463 167.201583,67.0074463 C168.42134,67.0074463 168.780592,66.8647898 169.330922,66.2694107 C169.929022,65.6499298 170.430928,64.6975837 170.790181,63.8162402 L170.790181,63.8162402 L171.531589,64.0064489 C171.468605,64.3296244 171.295776,64.9854514 171.10127,65.6828052 L170.931299,66.2839169 C170.731604,66.9812351 170.535424,67.6369018 170.430928,67.9597924 L170.430928,67.9597924 L159.306536,67.9597924 L159.306536,67.2934107 C161.483645,67.0791003 161.674723,66.9598941 161.674723,64.9353445 L161.674723,64.9353445 L161.674723,55.4809323 C161.674723,53.4570341 161.435876,53.337828 159.521826,53.1469679 L159.521826,53.1469679 L159.521826,52.4805863 L165.933402,52.4805863 Z M28.8523553,52.432969 C28.8759129,53.0283481 28.9714518,54.8138341 29.067645,56.0762463 L29.067645,56.0762463 L28.3497945,56.1954524 C28.1345048,55.3857628 27.8950032,54.885488 27.6325984,54.3858646 C27.2497884,53.5996254 26.6988038,53.4328672 25.2637572,53.4328672 L25.2637572,53.4328672 L22.9911092,53.4328672 C22.2497012,53.4328672 22.2012773,53.5045211 22.2012773,54.1950046 L22.2012773,59.4583125 L24.8567353,59.4583125 C26.6516887,59.4583125 26.7707852,59.1006941 27.0580562,57.481315 L27.0580562,57.481315 L27.7994643,57.481315 L27.7994643,62.3870046 L27.0580562,62.3870046 C26.7472276,60.6725211 26.5554954,60.4347603 24.8331777,60.4347603 L24.8331777,60.4347603 L22.2012773,60.4347603 L22.2012773,65.1736916 C22.2012773,66.8406229 22.7273957,66.9832794 23.9242494,67.0073812 L23.9242494,67.0073812 L26.1484736,67.0073812 C27.6083865,67.0073812 27.8472337,66.7930707 28.3740064,66.1735898 C28.8281434,65.6739664 29.3307042,64.6975186 29.6657447,63.9829333 L29.6657447,63.9829333 L30.3835952,64.173142 C30.2396325,64.7926229 29.5937634,67.2457934 29.3542617,67.9597272 L29.3542617,67.9597272 L17.7279628,67.9597272 L17.7279628,67.2933455 C19.9528413,67.1265873 20.1203616,66.9122768 20.1203616,64.9593812 L20.1203616,64.9593812 L20.1203616,55.5525211 C20.1203616,53.4328672 19.856648,53.3136611 18.0630033,53.1469028 L18.0630033,53.1469028 L18.0630033,52.4805211 L25.9187399,52.4800333 C27.783532,52.4765087 28.5890235,52.4544651 28.8523553,52.432969 Z M225.454988,52.432969 C225.478545,53.0283481 225.574084,54.8138341 225.669623,56.0762463 L225.669623,56.0762463 L224.951772,56.1954524 C224.736483,55.3857628 224.497636,54.885488 224.234576,54.3858646 C223.851766,53.5996254 223.301436,53.4328672 221.865735,53.4328672 L221.865735,53.4328672 L219.593087,53.4328672 C218.851679,53.4328672 218.80391,53.5045211 218.80391,54.1950046 L218.80391,54.1950046 L218.80391,59.4583125 L221.459368,59.4583125 C223.253667,59.4583125 223.373418,59.1006941 223.660689,57.481315 L223.660689,57.481315 L224.401442,57.481315 L224.401442,62.3870046 L223.660689,62.3870046 C223.349206,60.6725211 223.158128,60.4347603 221.435156,60.4347603 L221.435156,60.4347603 L218.80391,60.4347603 L218.80391,65.1736916 C218.80391,66.8406229 219.330028,66.9832794 220.526882,67.0073812 L220.526882,67.0073812 L222.751106,67.0073812 C224.210364,67.0073812 224.449866,66.7930707 224.975984,66.1735898 C225.430776,65.6739664 225.932682,64.6975186 226.267723,63.9829333 L226.267723,63.9829333 L226.986228,64.173142 C226.842265,64.7926229 226.196396,67.2457934 225.956894,67.9597272 L225.956894,67.9597272 L214.329941,67.9597272 L214.329941,67.2933455 C216.554819,67.1265873 216.72234,66.9122768 216.72234,64.9593812 L216.72234,64.9593812 L216.72234,55.5525211 C216.72234,53.4328672 216.45928,53.3136611 214.664981,53.1469028 L214.664981,53.1469028 L214.664981,52.4805211 L222.520718,52.4800333 C224.385515,52.4765087 225.191056,52.4544651 225.454988,52.432969 Z M288.898707,53.0282178 C286.219037,53.0282178 283.779523,55.2664265 283.779523,59.7200448 C283.779523,64.1495613 286.219037,67.4124214 289.616557,67.4124214 C292.510863,67.4124214 294.688626,65.2686656 294.688626,60.6723908 C294.688626,55.6715969 292.032514,53.0282178 288.898707,53.0282178 Z M64.2352525,53.3135308 C63.1581496,53.3135308 62.5842618,53.4568387 62.3447602,53.6476987 C62.1301249,53.7903552 62.0339316,54.0522178 62.0339316,54.9811135 L62.0339316,54.9811135 L62.0339316,64.7924926 C62.0339316,66.57863 62.7995515,67.0789048 64.5938506,67.0789048 C68.9002993,67.0789048 71.1009659,64.1495613 71.1009659,59.9819074 C71.1009659,57.3860804 70.2162495,55.4097344 68.3257571,54.2665282 C67.225751,53.5760448 65.8378194,53.3135308 64.2352525,53.3135308 Z M148.516857,55.2668173 C147.751891,57.3148173 146.937847,59.4820234 146.220651,61.3632651 L146.220651,61.3632651 L150.69462,61.3632651 Z M250.549654,55.2668173 C249.784688,57.3148173 248.970645,59.4820234 248.253449,61.3632651 L248.253449,61.3632651 L252.727417,61.3632651 Z M188.014274,53.2900804 C187.320636,53.2900804 186.818075,53.4092865 186.674766,53.5760448 C186.483034,53.7421517 186.411707,54.028116 186.411707,54.6710473 L186.411707,54.6710473 L186.411707,60.4587318 C186.698324,60.6013883 187.344193,60.7681466 188.158237,60.7681466 C189.760804,60.7681466 191.746835,59.9578056 191.746835,56.9574595 C191.746835,54.3381822 190.023863,53.2900804 188.014274,53.2900804 Z M236.243816,53.2900804 C235.550178,53.2900804 235.047617,53.4092865 234.904308,53.5760448 C234.712576,53.7421517 234.641249,54.028116 234.641249,54.6710473 L234.641249,54.6710473 L234.641249,60.4587318 C234.927866,60.6013883 235.573735,60.7681466 236.387779,60.7681466 C237.990346,60.7681466 239.976377,59.9578056 239.976377,56.9574595 C239.976377,54.3381822 238.253405,53.2900804 236.243816,53.2900804 Z M203.468477,53.3139868 C202.774838,53.3139868 202.36847,53.4090911 202.20095,53.5517476 C201.98566,53.7185059 201.913679,53.9569181 201.913679,54.576399 L201.913679,54.576399 L201.913679,60.4109842 L203.062109,60.4109842 C204.306078,60.4109842 205.09591,60.2201242 205.694009,59.7205008 C206.62715,59.0293659 207.00996,58.0770198 207.00996,56.7905059 C207.00996,54.242231 205.311199,53.3139868 203.468477,53.3139868 Z M6.86689119,53.3139868 C6.1732526,53.3139868 5.76623071,53.4090911 5.59871044,53.5517476 C5.38342073,53.7185059 5.31143937,53.9569181 5.31143937,54.576399 L5.31143937,54.576399 L5.31143937,60.4109842 L6.4598693,60.4109842 C7.70449251,60.4109842 8.49367,60.2201242 9.09176969,59.7205008 C10.0249099,59.0293659 10.4077199,58.0770198 10.4077199,56.7905059 C10.4077199,54.242231 8.70895972,53.3139868 6.86689119,53.3139868 Z" id="Combined-Shape"></path>
        </g>
    </g>
</svg>