<svg width="24px" height="24px" viewBox="0 0 24 24" version="1.1" xmlns="http://www.w3.org/2000/svg" xmlns:xlink="http://www.w3.org/1999/xlink">
    <g id="Icons" stroke="none" stroke-width="1" fill="none" fill-rule="evenodd">
        <g id="Outlined">
            <polygon id="Path" opacity="0.87" points="0 0 24 0 24 24 0 24"></polygon>
            <path d="M12,2 C17.53,2 22,6.47 22,12 C22,17.53 17.53,22 12,22 C6.47,22 2,17.53 2,12 C2,6.47 6.47,2 12,2 Z M12,20 C16.41,20 20,16.41 20,12 C20,7.59 16.41,4 12,4 C7.59,4 4,7.59 4,12 C4,16.41 7.59,20 12,20 Z" id="Combined-Shape" fill="#FFFFFF"></path>
            <polygon id="Path" fill="#FFFFFF" points="15.59 7 12 10.59 8.41 7 7 8.41 10.59 12 7 15.59 8.41 17 12 13.41 15.59 17 17 15.59 13.41 12 17 8.41"></polygon>
        </g>
    </g>
</svg>