<svg width="58px" height="58px" viewBox="0 0 58 58" version="1.1" xmlns="http://www.w3.org/2000/svg" xmlns:xlink="http://www.w3.org/1999/xlink">
	<g id="Page-1" stroke="none" stroke-width="1" fill="none" fill-rule="evenodd">
		<path d="M29,0 C36.9548613,0 43.77691,2.84461799 49.466146,8.53385396 C55.155382,14.22309 58,21.0451387 58,29 C58,36.9548613 55.155382,43.77691 49.466146,49.466146 C43.77691,55.155382 36.9548613,58 29,58 C21.0451387,58 14.22309,55.155382 8.53385396,49.466146 C2.84461799,43.77691 0,36.9548613 0,29 C0,21.0451387 2.84461799,14.22309 8.53385396,8.53385396 C14.22309,2.84461799 21.0451387,0 29,0 Z M29,4.57894737 C22.2842105,4.57894737 16.5350877,6.97017544 11.7526316,11.7526316 C6.97017544,16.5350877 4.57894737,22.2842105 4.57894737,29 C4.57894737,35.7157895 6.97017544,41.4649123 11.7526316,46.2473684 C16.5350877,51.0298246 22.2842105,53.4210526 29,53.4210526 C35.7157895,53.4210526 41.4649123,51.0298246 46.2473684,46.2473684 C51.0298246,41.4649123 53.4210526,35.7157895 53.4210526,29 C53.4210526,22.2842105 51.0298246,16.5350877 46.2473684,11.7526316 C41.4649123,6.97017544 35.7157895,4.57894737 29,4.57894737 Z M25.1842105,23.9969581 L25.1842105,34.1121427 L34.0435303,29.0503722 L25.1842105,23.9969581 Z M20.6052632,16.0263158 L42.7380416,28.9977875 L39.999358,30.6136494 L20.6362096,42.0694227 L20.6362096,41.9559793 L20.6052632,41.9736842 L20.6052632,16.0263158 Z" id="play-circle-copy-8" fill="#C7CCD2" fill-rule="nonzero"></path>
	</g>
</svg>